<?xml version="1.0" encoding="UTF-8" standalone="no"?>
<!-- Created with Inkscape (http://www.inkscape.org/) -->

<svg
   xmlns:dc="http://purl.org/dc/elements/1.1/"
   xmlns:cc="http://creativecommons.org/ns#"
   xmlns:rdf="http://www.w3.org/1999/02/22-rdf-syntax-ns#"
   xmlns:svg="http://www.w3.org/2000/svg"
   xmlns="http://www.w3.org/2000/svg"
   xmlns:sodipodi="http://sodipodi.sourceforge.net/DTD/sodipodi-0.dtd"
   xmlns:inkscape="http://www.inkscape.org/namespaces/inkscape"
   id="svg3352"
   height="19.716mm"
   viewBox="0 0 106.49684 69.86173"
   width="30.056mm"
   version="1.1"
   inkscape:version="0.91 r13725"
   sodipodi:docname="escudo_dgae_solow.svg">
  <defs
     id="defs4973" />
  <sodipodi:namedview
     pagecolor="#ffffff"
     bordercolor="#666666"
     borderopacity="1"
     objecttolerance="10"
     gridtolerance="10"
     guidetolerance="10"
     inkscape:pageopacity="0"
     inkscape:pageshadow="2"
     inkscape:window-width="1920"
     inkscape:window-height="1057"
     id="namedview4971"
     showgrid="false"
     inkscape:zoom="3.1174401"
     inkscape:cx="53.248818"
     inkscape:cy="34.929921"
     inkscape:window-x="-8"
     inkscape:window-y="-8"
     inkscape:window-maximized="1"
     inkscape:current-layer="svg3352" />
  <metadata
     id="metadata3357">
    <rdf:RDF>
      <cc:Work
         rdf:about="">
        <dc:format>image/svg+xml</dc:format>
        <dc:type
           rdf:resource="http://purl.org/dc/dcmitype/StillImage" />
        <dc:title />
      </cc:Work>
    </rdf:RDF>
  </metadata>
  <g
     id="layer1"
     fill="#fff"
     transform="translate(-52.477 -450.93)">
    <g
       id="text3360"
       transform="matrix(.375 0 0 .375 32.797 319.33)">
      <path
         id="path4230"
         d="m62.158 352.51h14.137q13.668 0 20.311 3.4064 6.6425 3.3638 10.943 10.986 4.3006 7.6218 4.3006 17.799 0 7.2386-2.4271 13.328-2.3845 6.0464-6.6425 10.049-4.2154 4.0025-9.1547 5.5354t-17.117 1.5329h-14.35v-62.635zm11.88 11.497v39.472h5.5354q8.1754 0 11.837-1.8735 3.7045-1.8735 6.0464-6.3019 2.3419-4.4283 2.3419-10.901 0-9.9638-5.578-15.457-5.0245-4.9393-16.138-4.9393h-4.0451z" />
      <path
         id="path4232"
         d="m183.45 362.73-8.3883 8.3031q-7.9625-8.4309-18.565-8.4309-9.2399 0-15.499 6.1315-6.2167 6.1316-6.2167 14.903 0 9.0696 6.4722 15.371 6.4722 6.3019 15.968 6.3019 6.1741 0 10.39-2.5974 4.258-2.5974 6.8554-8.1328h-18.139v-11.199h31.509l0.0852 2.64q0 8.218-4.258 15.584-4.258 7.3664-11.028 11.241-6.7702 3.8748-15.882 3.8748-9.7509 0-17.415-4.2154-7.6219-4.258-12.093-12.093-4.4283-7.8348-4.4283-16.904 0-12.433 8.218-21.631 9.7509-10.943 25.378-10.943 8.1754 0 15.286 3.0232 6.0038 2.5548 11.752 8.7715z" />
      <path
         id="path4234"
         d="m220.3 352.51h12.093l24.1 62.635h-12.391l-4.8967-12.902h-25.548l-5.1096 12.902h-12.391l24.143-62.635zm6.1316 16.606-8.3457 21.503h16.649l-8.3031-21.503z" />
      <path
         id="path4236"
         d="m268.19 352.51h34.192v11.667h-22.355v11.326h22.355v11.454h-22.355v16.479h22.355v11.71h-34.192v-62.635z" />
      <path
         id="path4238"
         d="m55.614 439.71h11.965v40.536q0 5.2374 0.89418 7.409 0.93676 2.1716 3.0232 3.4916 2.129 1.2774 5.1096 1.2774 3.1509 0 5.4077-1.4477 2.2993-1.4477 3.1509-3.6619 0.89418-2.2568 0.89418-8.5586v-39.046h11.965v37.343q0 9.4528-1.0645 13.115-1.0645 3.6619-4.0877 7.0683-2.9806 3.4064-6.898 5.067-3.9174 1.618-9.1122 1.618-6.8128 0-11.88-3.1084-5.0245-3.1509-7.1961-7.8348-2.1716-4.7264-2.1716-15.925v-37.343z" />
      <path
         id="path4240"
         d="m111.95 439.71h11.411l26.868 41.218v-41.218h11.922v62.635h-11.454l-26.826-41.09v41.09h-11.922v-62.635z" />
      <path
         id="path4242"
         d="m195.53 439.71h12.093l24.1 62.635h-12.391l-4.8967-12.902h-25.548l-5.1096 12.902h-12.391l24.143-62.635zm6.1315 16.606-8.3457 21.503h16.649l-8.3031-21.503z" />
      <path
         id="path4244"
         d="m247.05 439.71h11.667l14.477 43.687 14.69-43.687h11.497l10.56 62.635h-11.497l-6.7277-39.557-13.328 39.557h-10.517l-13.157-39.557-6.8554 39.557h-11.624l10.815-62.635z" />
    </g>
    <path
       id="rect3366"
       d="m52.475 478.09h97.943v2.4283h-97.943z" />
    <g
       id="text3374"
       transform="matrix(.375 0 0 .375 32.797 319.33)">
      <path
         id="path4247"
         fill="#fff"
         d="m326.61 492.54q-1.7431 0-3.2468 0.6254-1.5036 0.6254-2.7544 1.8762t-1.8895 2.781q-0.6387 1.5169-0.6387 3.2467 0 1.7165 0.6387 3.2334 0.6387 1.5036 1.8895 2.7544t2.7544 1.8895q1.5036 0.62539 3.2468 0.62539 1.7564 0 3.26-0.62539 1.5169-0.63871 2.7677-1.8895 1.2375-1.2375 1.8496-2.7411 0.6254-1.5036 0.6254-3.2467 0-1.7697-0.6254-3.2734-0.62539-1.5169-1.8496-2.7544-1.2508-1.2508-2.7677-1.8762-1.5036-0.6254-3.26-0.6254zm0-1.3706q2.0226 0 3.7657 0.73185 1.7564 0.73185 3.2068 2.1822t2.1689 3.1935q0.71854 1.7431 0.71854 3.7923 0 2.0226-0.71854 3.7657-0.71854 1.7298-2.1689 3.1802t-3.2068 2.1822q-1.7431 0.73185-3.7657 0.73185t-3.779-0.73185q-1.7431-0.73185-3.1935-2.1822t-2.1689-3.1802q-0.71854-1.7431-0.71854-3.7657 0-2.0492 0.71854-3.7923t2.1689-3.1935 3.1935-2.1822q1.7564-0.73185 3.779-0.73185zm-0.35928 5.5088h-1.6367v3.6725h1.6367q1.4637 0 2.0359-0.4125 0.58548-0.41249 0.58548-1.4105 0-1.0113-0.58548-1.4238-0.58548-0.4258-2.0359-0.4258zm0.0932-1.3706q2.3419 0 3.4996 0.79837 1.1576 0.78508 1.1576 2.3951 0 1.1443-0.70524 1.8895-0.69192 0.74515-1.9693 0.97136 0.31935 0.10645 0.75846 0.6254 0.45241 0.50564 1.0645 1.477l1.823 2.9673h-2.2887l-1.7165-2.781q-0.78507-1.2774-1.2774-1.6101-0.47902-0.34596-1.1976-0.34596h-0.87821v4.737h-2.0625v-11.124h3.7923z" />
    </g>
  </g>
  <g
     id="g5416"
     transform="translate(-.0000076295)">
    <g
       style="font-weight:bold;font-size:10.625px;line-height:125%;font-family:'Century Gothic';letter-spacing:0px;word-spacing:0px;fill:#ffffff"
       id="text4793">
      <path
         d="m 5.3877258,63.075844 -1.0739135,0.949402 q -0.5654908,-0.788575 -1.1517334,-0.788575 -0.2853394,0 -0.466919,0.15564 -0.1815796,0.150452 -0.1815796,0.342407 0,0.191956 0.1296997,0.36316 0.1763916,0.228271 1.0635376,0.980529 0.8300782,0.695191 1.0064698,0.87677 0.440979,0.446167 0.6225585,0.856018 0.1867676,0.404663 0.1867676,0.887146 0,0.939026 -0.6484985,1.551209 -0.6484985,0.612182 -1.6912842,0.612182 -0.8145141,0 -1.4215088,-0.399475 Q 1.1595154,69.062782 0.72891235,68.206764 L 1.9480896,67.47007 q 0.5499268,1.011658 1.2658691,1.011658 0.3735352,0 0.6277466,-0.217896 0.2542114,-0.217895 0.2542114,-0.503235 0,-0.259399 -0.1919555,-0.518799 Q 3.7120056,66.982399 3.0583191,66.448036 1.8132019,65.43119 1.4500427,64.881264 1.0868835,64.326149 1.0868835,63.776222 q 0,-0.793762 0.6018067,-1.359253 0.6069946,-0.570678 1.4941406,-0.570678 0.5706787,0 1.0842896,0.264587 0.5187988,0.264587 1.1206054,0.964966 z"
         style=""
         id="path5516" />
      <path
         d="m 12.407074,67.257362 -4.5498657,0 q 0.098572,0.601807 0.5239868,0.959778 0.430603,0.352783 1.0946655,0.352783 0.7937624,0 1.3644414,-0.555114 l 1.193237,0.560302 q -0.446167,0.632935 -1.068726,0.939026 -0.622558,0.300904 -1.4785764,0.300904 -1.328125,0 -2.1633911,-0.835267 -0.8352662,-0.840454 -0.8352662,-2.101135 0,-1.291809 0.8300782,-2.142639 0.8352661,-0.856018 2.0907592,-0.856018 1.3333133,0 2.1685793,0.856018 0.835266,0.85083 0.835266,2.251587 l -0.0052,0.269775 z M 10.985565,66.141945 Q 10.84549,65.669838 10.43045,65.374123 10.020599,65.078407 9.4758606,65.078407 q -0.5914307,0 -1.0375977,0.332032 -0.2801513,0.207519 -0.5187988,0.731506 l 3.0661009,0 z"
         style=""
         id="path5518" />
      <path
         d="m 19.084015,65.166603 -1.177673,0.648499 q -0.332032,-0.347596 -0.658875,-0.482483 -0.321655,-0.134888 -0.757446,-0.134888 -0.793762,0 -1.286621,0.477295 -0.487671,0.472107 -0.487671,1.213989 0,0.721131 0.472107,1.177674 0.472107,0.456543 1.239929,0.456543 0.949402,0 1.478577,-0.648499 l 1.115417,0.762634 q -0.907898,1.177674 -2.562866,1.177674 -1.488953,0 -2.334595,-0.881958 -0.840454,-0.881958 -0.840454,-2.06482 0,-0.819702 0.409851,-1.509704 0.409851,-0.690003 1.141357,-1.08429 0.736695,-0.394287 1.644593,-0.394287 0.840454,0 1.509704,0.337219 0.669251,0.332031 1.094666,0.949402 z"
         style=""
         id="path5520" />
      <path
         d="m 20.033417,64.025246 1.213989,0 0,0.710754 q 0.197144,-0.420227 0.523987,-0.638122 0.326843,-0.217896 0.715942,-0.217896 0.274964,0 0.575867,0.145264 l -0.440979,1.219177 q -0.249024,-0.124512 -0.409851,-0.124512 -0.326843,0 -0.555115,0.404663 -0.223083,0.404663 -0.223083,1.587525 l 0.0052,0.274963 0,2.282715 -1.405945,0 0,-5.644531 z"
         style=""
         id="path5522" />
      <path
         d="m 29.423676,67.257362 -4.549866,0 q 0.09857,0.601807 0.523987,0.959778 0.430603,0.352783 1.094665,0.352783 0.793762,0 1.364441,-0.555114 l 1.193237,0.560302 q -0.446167,0.632935 -1.068725,0.939026 -0.622559,0.300904 -1.478577,0.300904 -1.328125,0 -2.163391,-0.835267 -0.835266,-0.840454 -0.835266,-2.101135 0,-1.291809 0.830078,-2.142639 0.835266,-0.856018 2.090759,-0.856018 1.333313,0 2.168579,0.856018 0.835267,0.85083 0.835267,2.251587 l -0.0052,0.269775 z m -1.421509,-1.115417 q -0.140076,-0.472107 -0.555115,-0.767822 -0.409851,-0.295716 -0.95459,-0.295716 -0.591431,0 -1.037597,0.332032 -0.280152,0.207519 -0.518799,0.731506 l 3.066101,0 z"
         style=""
         id="path5524" />
      <path
         d="m 30.746613,61.944862 1.411132,0 0,2.080384 0.840454,0 0,1.219177 -0.840454,0 0,4.425354 -1.411132,0 0,-4.425354 -0.726319,0 0,-1.219177 0.726319,0 0,-2.080384 z"
         style=""
         id="path5526" />
      <path
         d="m 37.942352,64.025246 1.411133,0 0,5.644531 -1.411133,0 0,-0.596619 q -0.415039,0.394287 -0.835266,0.570679 -0.415039,0.171204 -0.90271,0.171204 -1.094665,0 -1.893616,-0.845643 -0.79895,-0.85083 -0.79895,-2.111511 0,-1.307373 0.773011,-2.142639 0.77301,-0.835266 1.878051,-0.835266 0.508423,0 0.95459,0.191956 0.446167,0.191955 0.82489,0.575866 l 0,-0.622558 z M 36.4534,65.187355 q -0.658875,0 -1.094666,0.466919 -0.435791,0.461731 -0.435791,1.188049 0,0.731507 0.440979,1.203614 0.446167,0.472107 1.094666,0.472107 0.66925,0 1.110229,-0.461731 0.440979,-0.466919 0.440979,-1.219178 0,-0.736694 -0.440979,-1.193237 -0.440979,-0.456543 -1.115417,-0.456543 z"
         style=""
         id="path5528" />
      <path
         d="m 40.453339,64.025246 1.213989,0 0,0.710754 q 0.197143,-0.420227 0.523987,-0.638122 0.326843,-0.217896 0.715942,-0.217896 0.274963,0 0.575867,0.145264 l -0.440979,1.219177 q -0.249024,-0.124512 -0.409851,-0.124512 -0.326844,0 -0.555115,0.404663 -0.223084,0.404663 -0.223084,1.587525 l 0.0052,0.274963 0,2.282715 -1.405944,0 0,-5.644531 z"
         style=""
         id="path5530" />
      <path
         d="m 44.033051,64.025246 1.421508,0 0,5.644531 -1.421508,0 0,-5.644531 z m 0.964965,-3.066101 1.675721,0 -1.898804,2.033691 -1.016846,0 1.239929,-2.033691 z"
         style=""
         id="path5532" />
      <path
         d="m 50.912323,64.025246 1.411133,0 0,5.644531 -1.411133,0 0,-0.596619 q -0.415039,0.394287 -0.835266,0.570679 -0.415039,0.171204 -0.90271,0.171204 -1.094666,0 -1.893616,-0.845643 -0.79895,-0.85083 -0.79895,-2.111511 0,-1.307373 0.77301,-2.142639 0.773011,-0.835266 1.878052,-0.835266 0.508423,0 0.95459,0.191956 0.446167,0.191955 0.82489,0.575866 l 0,-0.622558 z m -1.488953,1.162109 q -0.658874,0 -1.094665,0.466919 -0.435791,0.461731 -0.435791,1.188049 0,0.731507 0.440979,1.203614 0.446167,0.472107 1.094665,0.472107 0.669251,0 1.11023,-0.461731 0.440979,-0.466919 0.440979,-1.219178 0,-0.736694 -0.440979,-1.193237 -0.440979,-0.456543 -1.115418,-0.456543 z"
         style=""
         id="path5534" />
      <path
         d="m 63.923798,63.283363 -1.022034,1.011658 q -0.970154,-1.027222 -2.261963,-1.027222 -1.125793,0 -1.888428,0.747071 -0.757446,0.74707 -0.757446,1.815796 0,1.105041 0.788574,1.872863 0.788574,0.767823 1.945496,0.767823 0.752258,0 1.265869,-0.316468 0.518799,-0.316467 0.835266,-0.990905 l -2.210083,0 0,-1.364441 3.839111,0 0.01038,0.321655 q 0,1.001282 -0.518798,1.898804 -0.518799,0.897522 -1.343689,1.369629 -0.824891,0.472106 -1.93512,0.472106 -1.188049,0 -2.121887,-0.51361 -0.92865,-0.518799 -1.473389,-1.473389 -0.539551,-0.95459 -0.539551,-2.059631 0,-1.514893 1.001282,-2.635498 1.188049,-1.333313 3.092041,-1.333313 0.996094,0 1.862488,0.368347 0.731506,0.311279 1.431885,1.068725 z"
         style=""
         id="path5536" />
      <path
         d="m 71.301117,67.257362 -4.549866,0 q 0.09857,0.601807 0.523987,0.959778 0.430603,0.352783 1.094666,0.352783 0.793762,0 1.36444,-0.555114 l 1.193238,0.560302 q -0.446167,0.632935 -1.068726,0.939026 -0.622558,0.300904 -1.478576,0.300904 -1.328125,0 -2.163392,-0.835267 -0.835266,-0.840454 -0.835266,-2.101135 0,-1.291809 0.830078,-2.142639 0.835267,-0.856018 2.09076,-0.856018 1.333313,0 2.168579,0.856018 0.835266,0.85083 0.835266,2.251587 l -0.0052,0.269775 z m -1.421509,-1.115417 q -0.140076,-0.472107 -0.555115,-0.767822 -0.409851,-0.295716 -0.954589,-0.295716 -0.591431,0 -1.037598,0.332032 -0.280151,0.207519 -0.518799,0.731506 l 3.066101,0 z"
         style=""
         id="path5538" />
      <path
         d="m 72.45285,64.025246 1.411133,0 0,0.575866 q 0.482483,-0.404663 0.871582,-0.560302 0.394287,-0.160828 0.804138,-0.160828 0.840454,0 1.426697,0.586243 0.492859,0.498047 0.492859,1.473388 l 0,3.730164 -1.400757,0 0,-2.47467 q 0,-1.011658 -0.09338,-1.343689 -0.08819,-0.332032 -0.316467,-0.503235 -0.223083,-0.176392 -0.555115,-0.176392 -0.430603,0 -0.741882,0.290527 -0.306091,0.28534 -0.425415,0.793763 -0.06226,0.264587 -0.06226,1.146545 l 0,2.267151 -1.411133,0 0,-5.644531 z"
         style=""
         id="path5540" />
      <path
         d="m 84.478607,67.257362 -4.549866,0 q 0.09857,0.601807 0.523987,0.959778 0.430603,0.352783 1.094666,0.352783 0.793762,0 1.364441,-0.555114 l 1.193237,0.560302 q -0.446167,0.632935 -1.068726,0.939026 -0.622558,0.300904 -1.478576,0.300904 -1.328125,0 -2.163391,-0.835267 -0.835266,-0.840454 -0.835266,-2.101135 0,-1.291809 0.830078,-2.142639 0.835266,-0.856018 2.090759,-0.856018 1.333313,0 2.168579,0.856018 0.835266,0.85083 0.835266,2.251587 l -0.0052,0.269775 z m -1.421509,-1.115417 q -0.140075,-0.472107 -0.555114,-0.767822 -0.409851,-0.295716 -0.95459,-0.295716 -0.591431,0 -1.037598,0.332032 -0.280151,0.207519 -0.518799,0.731506 l 3.066101,0 z"
         style=""
         id="path5542" />
      <path
         d="m 85.298309,64.025246 1.21399,0 0,0.710754 q 0.197143,-0.420227 0.523986,-0.638122 0.326844,-0.217896 0.715943,-0.217896 0.274963,0 0.575866,0.145264 l -0.440979,1.219177 q -0.249023,-0.124512 -0.409851,-0.124512 -0.326843,0 -0.555114,0.404663 -0.223084,0.404663 -0.223084,1.587525 l 0.0052,0.274963 0,2.282715 -1.405945,0 0,-5.644531 z"
         style=""
         id="path5544" />
      <path
         d="m 93.204803,64.025246 1.411133,0 0,5.644531 -1.411133,0 0,-0.596619 q -0.415039,0.394287 -0.835266,0.570679 -0.415039,0.171204 -0.90271,0.171204 -1.094665,0 -1.893615,-0.845643 -0.798951,-0.85083 -0.798951,-2.111511 0,-1.307373 0.773011,-2.142639 0.77301,-0.835266 1.878051,-0.835266 0.508423,0 0.95459,0.191956 0.446167,0.191955 0.82489,0.575866 l 0,-0.622558 z m -1.488952,1.162109 q -0.658875,0 -1.094666,0.466919 -0.435791,0.461731 -0.435791,1.188049 0,0.731507 0.440979,1.203614 0.446167,0.472107 1.094666,0.472107 0.66925,0 1.110229,-0.461731 0.440979,-0.466919 0.440979,-1.219178 0,-0.736694 -0.440979,-1.193237 -0.440979,-0.456543 -1.115417,-0.456543 z"
         style=""
         id="path5546" />
      <path
         d="m 95.897369,61.846291 1.416321,0 0,7.823486 -1.416321,0 0,-7.823486 z"
         style=""
         id="path5548" />
    </g>
  </g>
</svg>
